<svg width="16" height="16" viewBox="0 0 16 16" fill="none" xmlns="http://www.w3.org/2000/svg">
<g id="Icon/Add">
<path id="Union" fill-rule="evenodd" clip-rule="evenodd" d="M8.37467 3.33398C8.37467 3.12688 8.20678 2.95898 7.99967 2.95898C7.79257 2.95898 7.62467 3.12688 7.62467 3.33398V7.62565H3.33301C3.1259 7.62565 2.95801 7.79354 2.95801 8.00065C2.95801 8.20776 3.1259 8.37565 3.33301 8.37565H7.62467V12.6673C7.62467 12.8744 7.79257 13.0423 7.99967 13.0423C8.20678 13.0423 8.37467 12.8744 8.37467 12.6673V8.37565H12.6663C12.8734 8.37565 13.0413 8.20776 13.0413 8.00065C13.0413 7.79354 12.8734 7.62565 12.6663 7.62565H8.37467V3.33398Z" fill="#121212"/>
</g>
</svg>
