<svg width="16" height="16" viewBox="0 0 16 16" fill="none" xmlns="http://www.w3.org/2000/svg">
<g id="outline/camera">
<path id="Vector" d="M4.25129 3.72265C4.09812 3.95241 4.1602 4.26285 4.38997 4.41603C4.61973 4.5692 4.93017 4.50711 5.08334 4.27735L4.25129 3.72265ZM5.60483 2.59373L6.02085 2.87108L6.02085 2.87108L5.60483 2.59373ZM10.3965 2.59373L10.8125 2.31638L10.3965 2.59373ZM10.918 4.27735C11.0711 4.50711 11.3816 4.5692 11.6113 4.41603C11.8411 4.26285 11.9032 3.95241 11.75 3.72265L10.918 4.27735ZM9.50065 9C9.50065 9.82843 8.82908 10.5 8.00065 10.5V11.5C9.38136 11.5 10.5007 10.3807 10.5007 9H9.50065ZM8.00065 10.5C7.17222 10.5 6.50065 9.82843 6.50065 9H5.50065C5.50065 10.3807 6.61994 11.5 8.00065 11.5V10.5ZM6.50065 9C6.50065 8.17157 7.17222 7.5 8.00065 7.5V6.5C6.61994 6.5 5.50065 7.61929 5.50065 9H6.50065ZM8.00065 7.5C8.82908 7.5 9.50065 8.17157 9.50065 9H10.5007C10.5007 7.61929 9.38136 6.5 8.00065 6.5V7.5ZM5.08334 4.27735L6.02085 2.87108L5.1888 2.31638L4.25129 3.72265L5.08334 4.27735ZM6.71423 2.5H9.28707V1.5H6.71423V2.5ZM9.98045 2.87108L10.918 4.27735L11.75 3.72265L10.8125 2.31638L9.98045 2.87108ZM9.28707 2.5C9.5657 2.5 9.82589 2.63925 9.98045 2.87108L10.8125 2.31638C10.4725 1.80635 9.90005 1.5 9.28707 1.5V2.5ZM6.02085 2.87108C6.17541 2.63925 6.4356 2.5 6.71423 2.5V1.5C6.10125 1.5 5.52882 1.80635 5.1888 2.31638L6.02085 2.87108ZM4.00065 4.5H12.0007V3.5H4.00065V4.5ZM14.1673 6.66667V11.3333H15.1673V6.66667H14.1673ZM12.0007 13.5H4.00065V14.5H12.0007V13.5ZM1.83398 11.3333V6.66667H0.833984V11.3333H1.83398ZM4.00065 13.5C2.80403 13.5 1.83398 12.53 1.83398 11.3333H0.833984C0.833984 13.0822 2.25175 14.5 4.00065 14.5V13.5ZM14.1673 11.3333C14.1673 12.53 13.1973 13.5 12.0007 13.5V14.5C13.7496 14.5 15.1673 13.0822 15.1673 11.3333H14.1673ZM12.0007 4.5C13.1973 4.5 14.1673 5.47005 14.1673 6.66667H15.1673C15.1673 4.91777 13.7496 3.5 12.0007 3.5V4.5ZM4.00065 3.5C2.25175 3.5 0.833984 4.91777 0.833984 6.66667H1.83398C1.83398 5.47005 2.80403 4.5 4.00065 4.5V3.5Z" fill="#FEFEFE"/>
</g>
</svg>
