<svg width="33" height="32" viewBox="0 0 33 32" fill="none" xmlns="http://www.w3.org/2000/svg">
<g id="outline/store 01">
<path id="Rectangle 743" d="M27.4974 16V24C27.4974 26.9455 25.1096 29.3333 22.1641 29.3333H11.4974C8.55188 29.3333 6.16406 26.9455 6.16406 24V16" stroke="#141718" stroke-width="2.5" stroke-linejoin="round"/>
<path id="Vector" d="M23.1906 2.66602H10.474C8.05084 2.66602 5.87183 4.32569 4.9719 6.85675L3.96126 9.69918C3.65533 10.5596 3.44386 11.4803 3.66699 12.3659C4.19545 14.463 5.90996 15.9993 7.94342 15.9993C10.398 15.9993 12.3879 13.7608 12.3879 10.9993C12.3879 13.7608 14.3777 15.9993 16.8323 15.9993C19.2869 15.9993 21.2768 13.7608 21.2768 10.9993C21.2768 13.7608 23.2666 15.9993 25.7212 15.9993C27.7547 15.9993 29.4692 14.463 29.9976 12.3658C30.2208 11.4803 30.0093 10.5596 29.7034 9.69918L28.6927 6.85674C27.7928 4.32569 25.6138 2.66602 23.1906 2.66602Z" stroke="#141718" stroke-width="2.5" stroke-linejoin="round"/>
<path id="Rectangle 744" d="M12.832 25.334C12.832 23.1248 14.6229 21.334 16.832 21.334C19.0412 21.334 20.832 23.1248 20.832 25.334V29.334H12.832V25.334Z" stroke="#141718" stroke-width="2.5" stroke-linejoin="round"/>
</g>
</svg>
