<svg width="20" height="20" viewBox="0 0 20 20" fill="none" xmlns="http://www.w3.org/2000/svg">
<g id="icons/Heart/Line">
<path id="Shape" fill-rule="evenodd" clip-rule="evenodd" d="M10.5767 5.76422C10.2542 6.07365 9.74511 6.07365 9.42267 5.76422L8.84567 5.2105C8.17032 4.56239 7.25795 4.16667 6.24967 4.16667C4.17861 4.16667 2.49967 5.8456 2.49967 7.91667C2.49967 9.90219 3.5745 11.5417 5.12614 12.8888C6.67911 14.237 8.53584 15.1312 9.64521 15.5876C9.87717 15.683 10.1222 15.683 10.3541 15.5876C11.4635 15.1312 13.3202 14.237 14.8732 12.8888C16.4249 11.5417 17.4997 9.90218 17.4997 7.91667C17.4997 5.8456 15.8207 4.16667 13.7497 4.16667C12.7414 4.16667 11.829 4.56239 11.1537 5.2105L10.5767 5.76422ZM9.99967 4.00798C9.02643 3.074 7.70508 2.5 6.24967 2.5C3.25813 2.5 0.833008 4.92512 0.833008 7.91667C0.833008 13.2235 6.64163 16.1542 9.01117 17.1289C9.64931 17.3914 10.35 17.3914 10.9882 17.1289C13.3577 16.1542 19.1663 13.2235 19.1663 7.91667C19.1663 4.92512 16.7412 2.5 13.7497 2.5C12.2943 2.5 10.9729 3.074 9.99967 4.00798Z" fill="#6C7275"/>
</g>
</svg>
